<svg width="161" height="44" viewBox="0 0 161 44" fill="none" xmlns="http://www.w3.org/2000/svg">
<path d="M53.2765 28.8V35.2H52.1318V29.7625H49.3445V35.2H48.1997V28.8H53.2765ZM55.2262 35.2875V34.3125H55.5902C55.754 34.3125 55.8888 34.2885 55.9946 34.2406C56.1004 34.1927 56.1854 34.124 56.2496 34.0343C56.316 33.9448 56.371 33.8406 56.4145 33.7219L56.4985 33.5062L54.2214 28.8H55.4284L57.0149 32.225L58.3868 28.8H59.5751L57.3789 34.0187C57.2773 34.2437 57.1601 34.4531 57.0274 34.6468C56.8947 34.8385 56.7214 34.9937 56.5078 35.1125C56.2964 35.2292 56.0205 35.2875 55.6804 35.2875H55.2262ZM60.5193 29.7718V28.8H65.6022V29.7718H63.6331V35.2H62.4884V29.7718H60.5193ZM66.5822 35.2V28.8H70.7257V29.7718H67.7363V31.5093H70.5111V32.4812H67.7363V34.2281H70.7506V35.2H66.5822ZM72.0711 28.8H73.2066V34.2375H75.1725V28.8H76.3018V34.2375H78.2523V28.8H79.3816V35.2H72.0711V28.8ZM80.8088 35.2V28.8H84.9523V29.7718H81.9629V31.5093H84.7377V32.4812H81.9629V34.2281H84.9771V35.2H80.8088ZM91.5829 30.9593H90.4192C90.3864 30.7677 90.3251 30.5979 90.236 30.45C90.147 30.3 90.036 30.1729 89.9031 30.0687C89.7703 29.9646 89.6192 29.8865 89.4491 29.8343C89.2812 29.7802 89.0994 29.7531 88.9045 29.7531C88.5585 29.7531 88.2511 29.8406 87.984 30.0156C87.7161 30.1885 87.5065 30.4427 87.3554 30.7781C87.2036 31.1114 87.1284 31.5187 87.1284 32C87.1284 32.4896 87.2036 32.9021 87.3554 33.2375C87.5087 33.5708 87.7182 33.8229 87.984 33.9937C88.2511 34.1625 88.557 34.2469 88.9016 34.2469C89.0921 34.2469 89.2702 34.2219 89.4367 34.1718C89.6046 34.1198 89.7549 34.0437 89.8878 33.9437C90.0221 33.8438 90.1353 33.7208 90.2265 33.575C90.32 33.4291 90.3842 33.2625 90.4192 33.075L91.5829 33.0812C91.5391 33.3854 91.4449 33.6708 91.2996 33.9375C91.1565 34.2041 90.9689 34.4396 90.7368 34.6437C90.5047 34.8458 90.2331 35.0042 89.9214 35.1187C89.6104 35.2312 89.2651 35.2875 88.8855 35.2875C88.3256 35.2875 87.8263 35.1573 87.3861 34.8968C86.9466 34.6364 86.6006 34.2604 86.3473 33.7687C86.0947 33.277 85.9677 32.6875 85.9677 32C85.9677 31.3104 86.0955 30.7208 86.3502 30.2312C86.6057 29.7396 86.9532 29.3635 87.3927 29.1031C87.8321 28.8427 88.33 28.7125 88.8855 28.7125C89.2403 28.7125 89.5703 28.7625 89.8747 28.8625C90.1798 28.9625 90.4514 29.1094 90.6901 29.3031C90.9288 29.4948 91.1244 29.7302 91.2777 30.0094C91.4332 30.2864 91.5354 30.6031 91.5829 30.9593ZM92.3596 29.7718V28.8H97.4426V29.7718H95.4738V35.2H94.3291V29.7718H92.3596ZM98.423 35.2V28.8H100.862C101.322 28.8 101.704 28.8729 102.009 29.0187C102.316 29.1624 102.545 29.3593 102.697 29.6093C102.85 29.8593 102.927 30.1427 102.927 30.4593C102.927 30.7198 102.877 30.9427 102.778 31.1281C102.678 31.3114 102.545 31.4604 102.377 31.575C102.209 31.6896 102.021 31.7719 101.814 31.8219V31.8844C102.039 31.8968 102.256 31.9666 102.464 32.0937C102.673 32.2188 102.844 32.3958 102.977 32.625C103.11 32.8541 103.176 33.1312 103.176 33.4563C103.176 33.7875 103.096 34.0854 102.937 34.35C102.777 34.6125 102.537 34.8197 102.215 34.9718C101.893 35.1239 101.489 35.2 101.001 35.2H98.423ZM99.5771 34.2312H100.818C101.237 34.2312 101.539 34.151 101.723 33.9906C101.91 33.8281 102.003 33.6198 102.003 33.3656C102.003 33.1761 101.957 33.0052 101.863 32.8531C101.77 32.6989 101.637 32.5781 101.465 32.4906C101.293 32.401 101.087 32.3563 100.849 32.3563H99.5771V34.2312ZM99.5771 31.5219H100.719C100.917 31.5219 101.097 31.4854 101.257 31.4125C101.416 31.3375 101.542 31.2323 101.633 31.0968C101.726 30.9593 101.773 30.7968 101.773 30.6094C101.773 30.3614 101.686 30.1573 101.512 29.9968C101.339 29.8365 101.084 29.7562 100.744 29.7562H99.5771V31.5219ZM104.749 35.2875V34.3125H105.113C105.277 34.3125 105.412 34.2885 105.518 34.2406C105.624 34.1927 105.708 34.124 105.773 34.0343C105.839 33.9448 105.894 33.8406 105.938 33.7219L106.022 33.5062L103.745 28.8H104.951L106.538 32.225L107.91 28.8H109.098L106.902 34.0187C106.8 34.2437 106.683 34.4531 106.551 34.6468C106.418 34.8385 106.244 34.9937 106.031 35.1125C105.819 35.2292 105.543 35.2875 105.203 35.2875H104.749ZM109.92 28.8H111.065V33.1625H111.124L114.119 28.8H115.156V35.2H114.002V30.8406H113.949L110.944 35.2H109.92V28.8ZM113.155 27.15H113.998C113.998 27.5146 113.867 27.8104 113.603 28.0375C113.342 28.2625 112.987 28.375 112.54 28.375C112.096 28.375 111.742 28.2625 111.479 28.0375C111.218 27.8104 111.088 27.5146 111.09 27.15H111.927C111.927 27.3 111.972 27.4343 112.064 27.5531C112.157 27.6697 112.316 27.7281 112.54 27.7281C112.759 27.7281 112.916 27.6697 113.009 27.5531C113.105 27.4365 113.154 27.3021 113.155 27.15ZM124.039 30.9593H122.876C122.843 30.7677 122.782 30.5979 122.693 30.45C122.603 30.3 122.493 30.1729 122.36 30.0687C122.227 29.9646 122.076 29.8865 121.906 29.8343C121.737 29.7802 121.556 29.7531 121.361 29.7531C121.014 29.7531 120.708 29.8406 120.44 30.0156C120.173 30.1885 119.963 30.4427 119.812 30.7781C119.66 31.1114 119.585 31.5187 119.585 32C119.585 32.4896 119.66 32.9021 119.812 33.2375C119.965 33.5708 120.175 33.8229 120.44 33.9937C120.708 34.1625 121.014 34.2469 121.358 34.2469C121.549 34.2469 121.727 34.2219 121.893 34.1718C122.061 34.1198 122.211 34.0437 122.344 33.9437C122.479 33.8438 122.592 33.7208 122.683 33.575C122.776 33.4291 122.841 33.2625 122.876 33.075L124.039 33.0812C123.996 33.3854 123.901 33.6708 123.756 33.9375C123.613 34.2041 123.425 34.4396 123.193 34.6437C122.961 34.8458 122.689 35.0042 122.378 35.1187C122.067 35.2312 121.722 35.2875 121.342 35.2875C120.782 35.2875 120.283 35.1573 119.843 34.8968C119.403 34.6364 119.057 34.2604 118.804 33.7687C118.551 33.277 118.424 32.6875 118.424 32C118.424 31.3104 118.552 30.7208 118.807 30.2312C119.062 29.7396 119.41 29.3635 119.849 29.1031C120.289 28.8427 120.787 28.7125 121.342 28.7125C121.697 28.7125 122.027 28.7625 122.331 28.8625C122.636 28.9625 122.908 29.1094 123.147 29.3031C123.385 29.4948 123.581 29.7302 123.734 30.0094C123.89 30.2864 123.992 30.6031 124.039 30.9593ZM131.366 28.8V29.7718H128.423V35.2H127.269V28.8H131.366ZM132.342 28.8H133.487V33.1625H133.546L136.541 28.8H137.577V35.2H136.423V30.8406H136.371L133.365 35.2H132.342V28.8ZM138.421 36.7437V34.2531H138.847C138.991 34.1386 139.124 33.9771 139.249 33.7687C139.373 33.5604 139.479 33.275 139.566 32.9125C139.653 32.55 139.713 32.0813 139.747 31.5063L139.915 28.8H143.987V34.2531H144.695V36.7375H143.588V35.2H139.529V36.7437H138.421ZM140.191 34.2531H142.879V29.7718H140.953L140.854 31.5063C140.827 31.9416 140.783 32.3313 140.724 32.675C140.663 33.0188 140.588 33.3218 140.496 33.5844C140.405 33.8448 140.303 34.0677 140.191 34.2531ZM151.329 32C151.329 32.6896 151.2 33.2802 150.943 33.7719C150.688 34.2615 150.34 34.6364 149.897 34.8968C149.458 35.1573 148.959 35.2875 148.402 35.2875C147.844 35.2875 147.344 35.1573 146.902 34.8968C146.463 34.6344 146.114 34.2583 145.857 33.7687C145.602 33.277 145.474 32.6875 145.474 32C145.474 31.3104 145.602 30.7208 145.857 30.2312C146.114 29.7396 146.463 29.3635 146.902 29.1031C147.344 28.8427 147.844 28.7125 148.402 28.7125C148.959 28.7125 149.458 28.8427 149.897 29.1031C150.34 29.3635 150.688 29.7396 150.943 30.2312C151.2 30.7208 151.329 31.3104 151.329 32ZM150.168 32C150.168 31.5145 150.093 31.1052 149.941 30.7718C149.792 30.4365 149.585 30.1833 149.319 30.0125C149.054 29.8395 148.748 29.7531 148.402 29.7531C148.055 29.7531 147.749 29.8395 147.484 30.0125C147.218 30.1833 147.01 30.4365 146.858 30.7718C146.71 31.1052 146.634 31.5145 146.634 32C146.634 32.4854 146.71 32.8958 146.858 33.2312C147.01 33.5646 147.218 33.8177 147.484 33.9906C147.749 34.1614 148.055 34.2469 148.402 34.2469C148.748 34.2469 149.054 34.1614 149.319 33.9906C149.585 33.8177 149.792 33.5646 149.941 33.2312C150.093 32.8958 150.168 32.4854 150.168 32ZM152.42 28.8H153.832L155.724 33.4375H155.798L157.689 28.8H159.102V35.2H157.995V30.8031H157.935L156.175 35.1812H155.347L153.586 30.7937H153.527V35.2H152.42V28.8Z" fill="#222222"/>
<path d="M48.0203 10.5505V7.93334H59.2386V10.5505H55.214V21.2667H52.0514V10.5505H48.0203ZM72.7268 14.6C72.7268 16.067 72.446 17.3105 71.8843 18.3305C71.3227 19.3505 70.5622 20.1252 69.6031 20.6547C68.6482 21.1842 67.5767 21.449 66.3886 21.449C65.1961 21.449 64.1225 21.182 63.1676 20.6482C62.2128 20.1143 61.4545 19.3396 60.8929 18.3239C60.3355 17.304 60.0568 16.0626 60.0568 14.6C60.0568 13.133 60.3355 11.8895 60.8929 10.8695C61.4545 9.84954 62.2128 9.07485 63.1676 8.54531C64.1225 8.01577 65.1961 7.75104 66.3886 7.75104C67.5767 7.75104 68.6482 8.01577 69.6031 8.54531C70.5622 9.07485 71.3227 9.84954 71.8843 10.8695C72.446 11.8895 72.7268 13.133 72.7268 14.6ZM69.4475 14.6C69.4475 13.732 69.3244 12.9984 69.0781 12.3995C68.8361 11.8005 68.4862 11.3469 68.0282 11.0388C67.5746 10.7306 67.028 10.5766 66.3886 10.5766C65.7534 10.5766 65.2069 10.7306 64.7489 11.0388C64.2909 11.3469 63.9388 11.8005 63.6926 12.3995C63.4506 12.9984 63.3296 13.732 63.3296 14.6C63.3296 15.4681 63.4506 16.2015 63.6926 16.8005C63.9388 17.3995 64.2909 17.8531 64.7489 18.1612C65.2069 18.4694 65.7534 18.6234 66.3886 18.6234C67.028 18.6234 67.5746 18.4694 68.0282 18.1612C68.4862 17.8531 68.8361 17.3995 69.0781 16.8005C69.3244 16.2015 69.4475 15.4681 69.4475 14.6ZM82.6294 7.93334H85.8312V16.5336C85.8312 17.5275 85.5954 18.3934 85.1246 19.1313C84.6537 19.8648 83.9967 20.4333 83.1543 20.837C82.3119 21.2363 81.3337 21.4359 80.219 21.4359C79.0911 21.4359 78.1056 21.2363 77.2632 20.837C76.4208 20.4333 75.7667 19.8648 75.2995 19.1313C74.833 18.3934 74.5994 17.5275 74.5994 16.5336V7.93334H77.8078V16.2537C77.8078 16.7137 77.907 17.1238 78.1056 17.4841C78.3093 17.8443 78.5918 18.1265 78.9546 18.3305C79.3181 18.5345 79.7393 18.6365 80.219 18.6365C80.6986 18.6365 81.1176 18.5345 81.476 18.3305C81.8388 18.1265 82.1221 17.8443 82.325 17.4841C82.5279 17.1238 82.6294 16.7137 82.6294 16.2537V7.93334ZM87.8416 21.2667V7.93334H93.3246C94.3182 7.93334 95.1759 8.11345 95.8972 8.47366C96.6235 8.82962 97.1827 9.34178 97.5762 10.0101C97.9689 10.6743 98.166 11.462 98.166 12.3735C98.166 13.2979 97.9645 14.0835 97.563 14.7302C97.1608 15.3726 96.5907 15.863 95.8519 16.2015C95.1131 16.5358 94.2386 16.7028 93.2276 16.7028H89.7601V14.1638H92.6311C93.1151 14.1638 93.5188 14.1009 93.8429 13.975C94.1714 13.8448 94.4196 13.6495 94.5883 13.3891C94.7569 13.1243 94.8409 12.7857 94.8409 12.3735C94.8409 11.9611 94.7569 11.6204 94.5883 11.3513C94.4196 11.0779 94.1714 10.8739 93.8429 10.7393C93.5144 10.6004 93.1107 10.531 92.6311 10.531H91.05V21.2667H87.8416ZM95.3139 15.1729L98.6193 21.2667H95.1197L91.8792 15.1729H95.3139ZM112.556 12.2888C112.483 12.0154 112.375 11.7745 112.232 11.5661C112.09 11.3535 111.915 11.1734 111.707 11.0258C111.5 10.8782 111.262 10.7675 110.994 10.6938C110.726 10.6157 110.433 10.5766 110.113 10.5766C109.469 10.5766 108.912 10.7328 108.441 11.0453C107.974 11.3578 107.614 11.8136 107.359 12.4125C107.104 13.0071 106.976 13.7298 106.976 14.5805C106.976 15.4355 107.1 16.1646 107.346 16.768C107.592 17.3713 107.949 17.8314 108.415 18.1482C108.882 18.465 109.447 18.6234 110.113 18.6234C110.701 18.6234 111.197 18.528 111.604 18.337C112.014 18.1416 112.325 17.8661 112.537 17.5102C112.748 17.1543 112.854 16.7354 112.854 16.2537L113.451 16.3252H110.223V13.975H115.946V15.7393C115.946 16.9329 115.693 17.955 115.187 18.8057C114.687 19.6564 113.995 20.3097 113.113 20.7654C112.237 21.2211 111.228 21.449 110.087 21.449C108.821 21.449 107.709 21.1734 106.749 20.6221C105.79 20.0709 105.043 19.2853 104.508 18.2654C103.972 17.241 103.704 16.0258 103.704 14.6195C103.704 13.5257 103.866 12.5557 104.189 11.7094C104.513 10.8587 104.965 10.1382 105.544 9.54792C106.127 8.95766 106.801 8.51062 107.566 8.2068C108.335 7.90298 109.163 7.75104 110.048 7.75104C110.818 7.75104 111.532 7.8617 112.194 8.08309C112.859 8.30441 113.446 8.61696 113.956 9.02058C114.471 9.42421 114.887 9.90381 115.207 10.4594C115.527 11.015 115.725 11.6247 115.804 12.2888H112.556ZM125.867 7.93334H129.068V16.5336C129.068 17.5275 128.833 18.3934 128.362 19.1313C127.891 19.8648 127.234 20.4333 126.391 20.837C125.549 21.2363 124.57 21.4359 123.455 21.4359C122.328 21.4359 121.343 21.2363 120.5 20.837C119.658 20.4333 119.003 19.8648 118.537 19.1313C118.07 18.3934 117.837 17.5275 117.837 16.5336V7.93334H121.045V16.2537C121.045 16.7137 121.144 17.1238 121.343 17.4841C121.546 17.8443 121.829 18.1265 122.192 18.3305C122.555 18.5345 122.976 18.6365 123.455 18.6365C123.935 18.6365 124.354 18.5345 124.712 18.3305C125.076 18.1265 125.358 17.8443 125.561 17.4841C125.765 17.1238 125.867 16.7137 125.867 16.2537V7.93334ZM134.286 7.93334V21.2667H131.079V7.93334H134.286ZM141.207 21.2667H136.3V7.93334H141.2C142.552 7.93334 143.717 8.20028 144.693 8.73414C145.674 9.26361 146.43 10.0275 146.961 11.0258C147.493 12.0197 147.759 13.2089 147.759 14.5935C147.759 15.9824 147.493 17.176 146.961 18.1742C146.434 19.1725 145.68 19.9385 144.7 20.4724C143.719 21.0019 142.554 21.2667 141.207 21.2667ZM139.509 18.5193H141.083C141.827 18.5193 142.455 18.3934 142.969 18.1416C143.488 17.8856 143.879 17.4711 144.142 16.8982C144.41 16.3209 144.544 15.5527 144.544 14.5935C144.544 13.6343 144.41 12.8704 144.142 12.3018C143.874 11.7289 143.479 11.3166 142.957 11.0648C142.438 10.8087 141.798 10.6807 141.038 10.6807H139.509V18.5193ZM149.632 21.2667V7.93334H158.886V10.5505H152.839V13.2849H158.413V15.9086H152.839V18.6495H158.886V21.2667H149.632Z" fill="#0094FF"/>
<mask id="mask0_2010_163" style="mask-type:luminance" maskUnits="userSpaceOnUse" x="0" y="0" width="35" height="44">
<path d="M34.31 0H0V44H34.31V0Z" fill="white"/>
</mask>
<g mask="url(#mask0_2010_163)">
<path d="M27.4448 18.246C27.3311 18.1326 27.2134 18.0315 27.0956 17.9303C26.312 17.2462 25.5528 16.7282 25.086 16.1616C25.0129 16.0765 24.9439 15.9834 24.8708 15.8822C23.5351 14.0204 22.2522 9.96481 25.5569 6.51236C25.3824 7.58493 25.3946 9.64105 26.8276 12.8022C26.8276 13.1381 26.8561 13.4902 26.8967 13.8666C27.1037 15.8134 27.2905 17.226 27.4407 18.2419L27.4448 18.246Z" fill="#EE731B"/>
<path d="M31.4437 6.45571C29.9537 6.75118 26.7383 7.9533 26.8276 12.8022C25.3945 9.6451 25.3823 7.58494 25.5569 6.51238C25.7152 6.33833 25.8816 6.17644 26.0644 6.01454C26.4135 5.69884 26.7627 5.43171 27.1118 5.20505L31.4437 6.45571Z" fill="#7B1714"/>
<path d="M30.575 13.219L31.2732 17.4487L26.8318 12.8022C26.7424 7.9533 29.9538 6.75523 31.4479 6.45572C27.1079 9.2161 30.5587 13.1988 30.5587 13.1988L30.575 13.215V13.219Z" fill="#E73E20"/>
<path d="M32.6616 15.5868C32.081 18.0396 31.2731 21.3423 31.2731 21.3423V17.4486L30.5748 13.219C31.4477 14.0366 32.1338 14.8299 32.6616 15.5868Z" fill="url(#paint0_linear_2010_163)"/>
<path d="M29.8116 26.4948C29.84 26.2964 29.8685 26.1021 29.8888 25.9119C29.9009 25.8269 29.905 25.75 29.9131 25.669C29.9172 25.6205 29.9253 25.5678 29.9294 25.5193C29.9416 25.414 29.9456 25.3048 29.9537 25.1995L31.2692 21.3383C31.2692 21.3383 32.0811 18.0355 32.6576 15.5868C37.3387 22.2733 29.8116 26.4948 29.8116 26.4948Z" fill="url(#paint1_linear_2010_163)"/>
<path d="M34.3099 5.20503C33.1042 5.5693 32.1704 5.99428 31.4518 6.4557H31.4477L27.1158 5.20503C27.9928 4.62624 28.8616 4.32268 29.6695 4.19721H29.6735C30.6114 4.04745 31.4761 4.1365 32.1947 4.30244C33.4817 4.61815 34.3099 5.20503 34.3099 5.20503Z" fill="#110F22"/>
<path d="M32.1947 4.30246C31.4762 4.13246 30.6154 4.04341 29.6736 4.19722H29.6695C29.6086 4.16889 29.158 4.01104 27.7857 4.44007C27.0468 4.14865 24.2902 3.05583 22.8124 2.29086C23.6122 2.36777 24.5459 2.3799 25.6381 2.29086C31.0904 1.84159 32.1988 4.3065 32.1988 4.3065L32.1947 4.30246Z" fill="#F9B218"/>
<path d="M27.7818 4.43603C27.1525 4.62626 26.3284 4.94601 25.2606 5.45195C21.6636 7.15188 18.7202 1.20615 18.6309 0.675934C18.6309 0.675934 19.6215 1.98731 22.8003 2.28682H22.8044C24.2862 3.0518 27.0429 4.14461 27.7778 4.43603H27.7818Z" fill="#E73E20"/>
<path d="M25.4027 20.7189L23.3159 23.872L11.6885 31.5742C11.7291 31.473 11.7656 31.3678 11.8102 31.2667C11.8508 31.1655 11.8955 31.0603 11.9442 30.951C12.0335 30.7608 12.131 30.5624 12.2366 30.3681C12.265 30.3074 12.2974 30.2467 12.3339 30.1819C12.4355 30.0079 12.541 29.8298 12.6506 29.6477C12.7237 29.5343 12.7927 29.4251 12.8699 29.3118C12.943 29.1984 13.0201 29.0811 13.1013 28.9677C13.1013 28.9677 14.5547 27.1342 17.4697 25.0012C18.2289 24.4386 19.0978 23.8558 20.0599 23.2891C20.746 22.8803 21.4849 22.4715 22.2725 22.0829C22.4755 21.9818 22.6786 21.8806 22.8856 21.7875C22.9303 21.7632 22.9708 21.743 23.0155 21.7268C23.3241 21.581 23.6407 21.4354 23.9655 21.3018C24.2903 21.1561 24.6232 21.0225 24.9602 20.893C25.0576 20.8485 25.1591 20.8161 25.2525 20.7756C25.3012 20.7513 25.354 20.7351 25.4027 20.7189Z" fill="url(#paint2_linear_2010_163)"/>
<path d="M23.3157 23.872L21.8339 27.3487C20.7418 27.964 19.5847 28.7167 18.5291 29.5991L11.1442 34.5006C11.128 34.0797 11.1605 33.6425 11.2336 33.1933C11.2376 33.1811 11.2376 33.1771 11.2376 33.1771C11.262 33.0354 11.2864 32.9059 11.3147 32.7683C11.3188 32.7562 11.3188 32.7399 11.3269 32.7278C11.3553 32.5862 11.3959 32.4485 11.4406 32.3028C11.465 32.2138 11.4894 32.1248 11.5178 32.0316C11.53 31.9993 11.5421 31.9709 11.5502 31.9345C11.5543 31.9224 11.5624 31.9061 11.5624 31.894C11.5949 31.7888 11.6355 31.6795 11.6801 31.5702L23.3076 23.8679L23.3157 23.872Z" fill="url(#paint3_linear_2010_163)"/>
<path d="M18.5293 29.5991C16.5642 31.2424 14.9484 33.3471 14.6845 35.9212L13.0809 39.3535C12.0456 38.1069 11.1809 36.4798 11.1443 34.5006L18.5293 29.5991Z" fill="url(#paint4_linear_2010_163)"/>
<path d="M16.6292 42.2556C16.5115 42.1989 14.6196 41.1911 13.085 39.3535L14.6886 35.9254C14.4897 37.7871 15.0134 39.8959 16.6292 42.2556Z" fill="#50C0DA"/>
<path d="M10.5801 30.5139C8.98859 33.683 8.68411 38.0745 8.64352 40.3492C7.45807 39.0419 6.51615 37.3379 6.35376 35.1725L10.5801 30.5179V30.5139Z" fill="#7B1714"/>
<path d="M16.7713 25.0943L12.9348 27.9154L10.5841 30.5139L6.35778 35.1684C6.26846 33.9178 6.43492 32.5133 6.97082 30.9429C6.97082 30.9429 8.46081 26.2599 16.7754 25.0903L16.7713 25.0943Z" fill="#EE731B"/>
<path d="M14.315 44C14.116 43.9393 10.929 42.8789 8.64331 40.3492C8.6839 38.0786 8.98846 33.683 10.5799 30.5139L12.9305 27.9154L16.7671 25.0943C16.9904 25.0619 17.2299 25.0336 17.4654 25.0053C14.5505 27.1383 13.097 28.9717 13.097 28.9717C13.0199 29.0851 12.9387 29.2024 12.8656 29.3158C12.7885 29.4291 12.7194 29.5384 12.6463 29.6518C12.5408 29.8298 12.4312 30.012 12.3297 30.186C12.2973 30.2467 12.2607 30.3074 12.2323 30.3722C12.1267 30.5705 12.0293 30.7648 11.9399 30.955C11.8912 31.0603 11.8425 31.1695 11.806 31.2707C11.7613 31.3719 11.7207 31.4772 11.6842 31.5783C11.6395 31.6917 11.5989 31.7969 11.5664 31.9021C11.5664 31.9143 11.5624 31.9304 11.5543 31.9426C11.5421 31.975 11.5299 32.0033 11.5218 32.0397C11.4934 32.1288 11.465 32.2178 11.4446 32.3109C11.4 32.4566 11.3594 32.5983 11.331 32.7359C11.3269 32.748 11.3269 32.7642 11.3188 32.7764C11.2904 32.918 11.262 33.0475 11.2417 33.1852C11.2417 33.1852 11.2417 33.1892 11.2376 33.2014C11.0914 33.5616 8.75704 39.6368 14.315 44.0081V44Z" fill="#E73E20"/>
<path d="M25.4026 20.719C25.3539 20.7352 25.3011 20.7514 25.2525 20.7756L18.7241 16.8334L18.3872 16.6918L4.6242 11.082L1.1124 9.65325L0 5.24957L12.2162 11.9157L15.9878 13.9759L16.9743 14.5142L17.6564 14.8826L19.9624 16.6229L25.4026 20.719Z" fill="url(#paint5_linear_2010_163)"/>
<path d="M24.9561 20.893C24.6192 21.0226 24.2862 21.1561 23.9614 21.3018C23.6367 21.4354 23.32 21.5811 23.0114 21.7268C22.9668 21.743 22.9262 21.7673 22.8816 21.7875C22.6745 21.8847 22.4715 21.9859 22.2685 22.083L21.8707 21.9939L17.8757 18.0598L20.5309 19.1202L24.9602 20.889L24.9561 20.893Z" fill="#7B1714"/>
<path d="M17.7944 21.059L15.6548 20.5651L8.57031 17.8979L2.96362 12.1181L5.43609 13.1057L12.7723 16.032L17.7944 21.059Z" fill="#F9B218"/>
<path d="M8.57033 17.8979L2.55359 15.6313L1.48584 11.5272L2.96364 12.1181L8.57033 17.8979Z" fill="#EE731B"/>
<path d="M25.2484 20.7756C25.151 20.8161 25.0495 20.8485 24.9561 20.893L20.5268 19.1243L17.8717 18.0638L12.7724 16.032L5.43625 13.1017L4.62427 11.0779L18.3832 16.6877L18.7201 16.8293L25.2484 20.7716V20.7756Z" fill="url(#paint6_linear_2010_163)"/>
<path d="M12.1228 22.3298L7.57568 21.7713L4.32373 18.3715L8.52979 19.1849H8.5379L12.1228 22.3298Z" fill="#F9B218"/>
<path d="M17.2097 22.9451L12.1227 22.3299L8.53784 19.185L13.6857 20.1847L17.2097 22.9451Z" fill="#E73E20"/>
<path d="M22.2683 22.0871C21.4807 22.4756 20.7418 22.8844 20.0557 23.2932L17.2097 22.9451L13.6858 20.1847L15.6548 20.5652L17.7944 21.059L21.8705 21.9939L22.2683 22.083V22.0871Z" fill="#7B1714"/>
<path d="M16.9703 14.5142L15.9878 13.9759L12.2161 11.9157L6.61353 5.99025V0L10.0969 4.88124L16.9703 14.5142Z" fill="url(#paint7_linear_2010_163)"/>
<path d="M29.9863 24.4507C29.9863 24.5802 29.9823 24.7017 29.9741 24.8393C29.9701 24.9567 29.962 25.0821 29.9498 25.2036C29.9376 25.3533 29.9255 25.5112 29.9092 25.673C29.9052 25.75 29.897 25.8309 29.8849 25.9159C29.8605 26.1062 29.8361 26.3044 29.8077 26.4988L23.3079 30.9429C23.4255 30.7931 25.3175 28.3606 26.5192 25.2481C26.8806 24.3172 27.1769 23.3256 27.3474 22.3096C27.4773 21.5527 27.5342 20.7797 27.4895 20.0107C27.4489 19.3104 27.3271 18.6143 27.0917 17.9343C27.2093 18.0355 27.3271 18.1367 27.4408 18.25C27.5463 18.3512 27.656 18.4524 27.7615 18.5657C27.8346 18.6345 27.9036 18.7074 27.9685 18.7843L27.9807 18.7964C28.0051 18.8207 28.0213 18.8409 28.0416 18.8652C28.1107 18.9381 28.1756 19.015 28.2406 19.1C28.2974 19.1566 28.3421 19.2133 28.3868 19.2741C28.4882 19.4036 28.5857 19.5331 28.6791 19.6707C28.8699 19.95 29.0485 20.2535 29.2068 20.5854C29.4058 20.9901 29.5682 21.4313 29.6981 21.9251C29.7427 22.0991 29.7833 22.2773 29.8158 22.4635C29.8442 22.6092 29.8727 22.7589 29.893 22.9167C29.897 22.9613 29.9052 23.0139 29.9092 23.0665C29.9255 23.2082 29.9376 23.3458 29.9539 23.4996C29.9539 23.5603 29.9579 23.6291 29.966 23.6979C29.9782 23.9408 29.9823 24.1917 29.9823 24.4548L29.9863 24.4507Z" fill="url(#paint8_linear_2010_163)"/>
<path d="M27.0956 17.9303L26.5556 20.3102L25.3783 25.673C24.5054 26.0171 23.2184 26.5756 21.834 27.3487L23.3159 23.872L25.4027 20.719L22.3131 14.2512L24.8749 15.8822C24.9479 15.9834 25.0169 16.0806 25.09 16.1616C25.5569 16.7282 26.3161 17.2462 27.0997 17.9303H27.0956Z" fill="#110F22"/>
<path d="M25.4027 20.719L19.9583 16.6229L17.6523 14.8826L16.9703 14.5142L10.0969 4.88126L22.0086 14.0528L22.305 14.243L22.3131 14.2512L25.4027 20.719Z" fill="url(#paint9_linear_2010_163)"/>
<path d="M27.3554 22.3056C27.1849 23.3215 26.8885 24.3132 26.5272 25.2441C26.5272 25.2441 26.0887 25.3857 25.3783 25.669L26.5556 20.3062L27.0956 17.9263C27.331 18.6062 27.4569 19.3024 27.4935 20.0026C27.5381 20.7716 27.4813 21.5447 27.3513 22.3016L27.3554 22.3056Z" fill="#07101A"/>
<path d="M31.2692 17.4487V21.3423L29.9538 25.2036C29.9659 25.0821 29.97 24.9567 29.9781 24.8393C29.9822 24.7057 29.9903 24.5802 29.9903 24.4507C29.9903 24.1877 29.9863 23.9327 29.9741 23.6939C29.97 23.6251 29.9619 23.5603 29.9619 23.4956C29.9456 23.3458 29.9335 23.2041 29.9172 23.0625C29.9132 23.0058 29.905 22.9572 29.901 22.9127C29.8766 22.7548 29.8522 22.6051 29.8239 22.4594C29.7914 22.2733 29.7508 22.0951 29.7061 21.9211C29.5762 21.4273 29.4138 20.9861 29.2149 20.5814C29.0565 20.2495 28.8779 19.9459 28.6871 19.6666C28.5896 19.525 28.4963 19.3954 28.3948 19.27C28.3501 19.2093 28.3055 19.1526 28.2486 19.0959C28.2162 19.0393 28.1634 18.9826 28.1187 18.9341C28.0943 18.9057 28.074 18.8855 28.0497 18.8612C28.0254 18.8369 28.0091 18.8167 27.9888 18.7924L27.9766 18.7802C27.9157 18.7074 27.8426 18.6305 27.7696 18.5617C27.664 18.4483 27.5544 18.3472 27.4488 18.246C27.2986 17.23 27.1118 15.8175 26.9048 13.8706C26.8642 13.4943 26.8358 13.1422 26.8358 12.8062L31.2773 17.4527L31.2692 17.4487Z" fill="#F9B218"/>
<path d="M21.8663 21.9979L17.7943 21.059L12.7722 16.032L17.8714 18.0638L21.8663 21.9979Z" fill="#E73E20"/>
</g>
<defs>
<linearGradient id="paint0_linear_2010_163" x1="31.7238" y1="13.4457" x2="31.0781" y2="19.1895" gradientUnits="userSpaceOnUse">
<stop stop-color="#50C0DA"/>
<stop offset="1" stop-color="#1B499A"/>
</linearGradient>
<linearGradient id="paint1_linear_2010_163" x1="34.4196" y1="15.5099" x2="30.5351" y2="26.3566" gradientUnits="userSpaceOnUse">
<stop stop-color="#50C0DA"/>
<stop offset="0.49" stop-color="#1B499A"/>
<stop offset="1" stop-color="#110F22"/>
</linearGradient>
<linearGradient id="paint2_linear_2010_163" x1="9.55293" y1="30.6191" x2="24.5878" y2="22.8956" gradientUnits="userSpaceOnUse">
<stop stop-color="#1B499A"/>
<stop offset="1" stop-color="#110F22"/>
</linearGradient>
<linearGradient id="paint3_linear_2010_163" x1="10.6164" y1="39.2604" x2="20.7943" y2="22.9292" gradientUnits="userSpaceOnUse">
<stop offset="0.23" stop-color="#50C0DA"/>
<stop offset="0.49" stop-color="#1B499A"/>
<stop offset="0.89" stop-color="#110F22"/>
</linearGradient>
<linearGradient id="paint4_linear_2010_163" x1="13.8197" y1="43.4698" x2="15.0182" y2="29.9425" gradientUnits="userSpaceOnUse">
<stop stop-color="#50C0DA"/>
<stop offset="1" stop-color="#1B499A"/>
</linearGradient>
<linearGradient id="paint5_linear_2010_163" x1="-0.0527782" y1="7.1276" x2="21.3868" y2="18.5757" gradientUnits="userSpaceOnUse">
<stop stop-color="#50C0DA"/>
<stop offset="0.49" stop-color="#1B499A"/>
<stop offset="1" stop-color="#110F22"/>
</linearGradient>
<linearGradient id="paint6_linear_2010_163" x1="4.01123" y1="11.5272" x2="23.975" y2="20.0953" gradientUnits="userSpaceOnUse">
<stop stop-color="#50C0DA"/>
<stop offset="0.49" stop-color="#1B499A"/>
<stop offset="1" stop-color="#110F22"/>
</linearGradient>
<linearGradient id="paint7_linear_2010_163" x1="6.62977" y1="3.01536" x2="18.0242" y2="15.5608" gradientUnits="userSpaceOnUse">
<stop stop-color="#50C0DA"/>
<stop offset="0.49" stop-color="#1B499A"/>
<stop offset="1" stop-color="#110F22"/>
</linearGradient>
<linearGradient id="paint8_linear_2010_163" x1="23.7991" y1="32.6792" x2="28.1452" y2="22.8462" gradientUnits="userSpaceOnUse">
<stop stop-color="#50C0DA"/>
<stop offset="0.49" stop-color="#1B499A"/>
<stop offset="1" stop-color="#110F22"/>
</linearGradient>
<linearGradient id="paint9_linear_2010_163" x1="14.2989" y1="6.65809" x2="20.2211" y2="15.7572" gradientUnits="userSpaceOnUse">
<stop stop-color="#50C0DA"/>
<stop offset="0.49" stop-color="#1B499A"/>
<stop offset="1" stop-color="#110F22"/>
</linearGradient>
</defs>
</svg>
